<svg width="300" height="150" viewBox="0 0 300 150" fill="none" xmlns="http://www.w3.org/2000/svg">
<g clip-path="url(#clip0)">
<path fill-rule="evenodd" clip-rule="evenodd" d="M83.0088 120.726C82.9541 122.405 84.289 123.801 85.9691 123.822L215.848 125.415C217.412 125.434 218.729 124.249 218.874 122.692L227.854 26.2216C228.008 24.5675 226.788 23.1039 225.134 22.9569L89.7598 10.9261C88.0431 10.7736 86.5504 12.0954 86.4942 13.818L83.0088 120.726Z" fill="#E372FF"/>
<g filter="url(#filter0_d)">
<g filter="url(#filter1_d)">
<path d="M79.8566 21.8721C79.8571 20.2152 81.2007 18.8719 82.8575 18.8717L217.993 18.8532C219.65 18.853 220.993 20.196 220.993 21.8528L220.958 126.833C220.957 128.849 219.651 130.484 218.041 130.485L82.737 130.503C81.1265 130.503 79.8215 128.869 79.8222 126.852L79.8566 21.8721Z" fill="white"/>
</g>
<path d="M79.8391 103.274L220.968 103.247L220.959 127.844C220.959 129.501 219.615 130.844 217.958 130.845L82.829 130.871C81.1722 130.871 79.8295 129.528 79.8301 127.871L79.8391 103.274Z" fill="#F4F5FB"/>
<path opacity="0.3" d="M106.348 117.593L130.482 117.589C131.289 117.589 131.944 116.933 131.944 116.123C131.945 115.314 131.29 114.658 130.483 114.658L106.349 114.662C105.542 114.662 104.887 115.318 104.887 116.127C104.887 116.937 105.541 117.593 106.348 117.593Z" fill="#4257B2"/>
<path opacity="0.3" fill-rule="evenodd" clip-rule="evenodd" d="M177.553 115.447C177.552 117.825 175.626 119.754 173.251 119.754C170.877 119.755 168.953 117.828 168.954 115.449C168.955 113.071 170.881 111.142 173.256 111.141C175.63 111.141 177.554 113.068 177.553 115.447ZM169.527 115.449C169.526 117.51 171.193 119.18 173.251 119.179C175.309 119.178 176.979 117.507 176.98 115.447C176.981 113.386 175.314 111.716 173.256 111.717C171.197 111.717 169.528 113.389 169.527 115.449Z" fill="#4257B2"/>
<path opacity="0.3" fill-rule="evenodd" clip-rule="evenodd" d="M152.959 115.447C152.957 117.825 151.031 119.754 148.657 119.754C146.282 119.755 144.358 117.828 144.359 115.449C144.361 113.071 146.287 111.142 148.661 111.141C151.036 111.141 152.96 113.068 152.959 115.447ZM144.933 115.449C144.932 117.51 146.599 119.18 148.657 119.179C150.715 119.178 152.384 117.507 152.386 115.447C152.387 113.386 150.719 111.716 148.661 111.717C146.603 111.717 144.934 113.389 144.933 115.449Z" fill="#4257B2"/>
<path opacity="0.3" fill-rule="evenodd" clip-rule="evenodd" d="M202.769 115.447C202.767 117.825 200.841 119.754 198.467 119.754C196.092 119.755 194.168 117.828 194.169 115.449C194.171 113.071 196.097 111.142 198.471 111.141C200.846 111.141 202.77 113.068 202.769 115.447ZM194.743 115.45C194.742 117.51 196.409 119.18 198.467 119.18C200.526 119.179 202.195 117.508 202.196 115.447C202.197 113.387 200.53 111.717 198.472 111.717C196.414 111.718 194.744 113.389 194.743 115.45Z" fill="#4257B2"/>
<path fill-rule="evenodd" clip-rule="evenodd" d="M94.0037 122.215C97.2308 122.214 99.8484 119.595 99.8501 116.366C99.8519 113.137 97.2372 110.52 94.01 110.521C90.7829 110.522 88.1653 113.14 88.1636 116.37C88.1618 119.599 90.7765 122.215 94.0037 122.215Z" fill="#4255FF"/>
<path fill-rule="evenodd" clip-rule="evenodd" d="M89.9648 120.593C90.901 119.278 92.4344 118.421 94.1668 118.42C95.8173 118.42 97.2862 119.197 98.2298 120.407C97.1655 121.521 95.6659 122.215 94.0047 122.215C92.4368 122.216 91.0136 121.598 89.9648 120.593L89.9648 120.593Z" fill="white"/>
<path fill-rule="evenodd" clip-rule="evenodd" d="M93.9942 117.842C95.2606 117.842 96.2878 116.811 96.2885 115.54C96.2893 114.269 95.2632 113.239 93.9967 113.24C92.7303 113.24 91.703 114.271 91.7023 115.542C91.7016 116.813 92.7277 117.843 93.9942 117.842Z" fill="white"/>
<path opacity="0.3" d="M106.085 90.2165L121.28 90.2142C122.088 90.2141 122.742 89.5575 122.742 88.7478C122.743 87.938 122.089 87.2817 121.282 87.2818L106.086 87.2841C105.279 87.2842 104.624 87.9407 104.624 88.7505C104.623 89.5603 105.277 90.2166 106.085 90.2165Z" fill="#4257B2"/>
<path opacity="0.3" fill-rule="evenodd" clip-rule="evenodd" d="M153.49 88.8484C153.489 91.227 151.563 93.1555 149.188 93.1561C146.814 93.1568 144.89 91.2293 144.891 88.8507C144.892 86.4721 146.818 84.5437 149.193 84.543C151.567 84.5424 153.491 86.4699 153.49 88.8484ZM145.464 88.8502C145.463 90.9108 147.13 92.581 149.189 92.5804C151.247 92.5798 152.916 90.9087 152.917 88.8481C152.918 86.7876 151.251 85.1174 149.193 85.118C147.135 85.1186 145.465 86.7897 145.464 88.8502Z" fill="#4257B2"/>
<path opacity="0.3" fill-rule="evenodd" clip-rule="evenodd" d="M203.03 88.8484C203.029 91.227 201.103 93.1555 198.729 93.1561C196.354 93.1568 194.43 91.2293 194.431 88.8507C194.433 86.4721 196.359 84.5437 198.733 84.543C201.108 84.5424 203.032 86.4699 203.03 88.8484ZM195.004 88.8502C195.003 90.9108 196.671 92.581 198.729 92.5804C200.787 92.5798 202.456 90.9087 202.457 88.8481C202.458 86.7876 200.791 85.1174 198.733 85.118C196.675 85.1186 195.006 86.7897 195.004 88.8502Z" fill="#4257B2"/>
<path opacity="0.3" fill-rule="evenodd" clip-rule="evenodd" d="M177.438 88.8094C177.437 91.188 175.511 93.1164 173.137 93.1171C170.762 93.1177 168.838 91.1902 168.839 88.8117C168.841 86.4331 170.767 84.5046 173.141 84.504C175.515 84.5034 177.44 86.4308 177.438 88.8094ZM169.413 88.8111C169.412 90.8717 171.079 92.5418 173.137 92.5413C175.195 92.5407 176.864 90.8696 176.865 88.809C176.866 86.7485 175.199 85.0783 173.141 85.0789C171.083 85.0795 169.414 86.7506 169.413 88.8111Z" fill="#4257B2"/>
<path fill-rule="evenodd" clip-rule="evenodd" d="M94.0102 95.7408C97.2373 95.7396 99.855 93.121 99.857 89.892C99.859 86.6629 97.2445 84.0461 94.0174 84.0473C90.7903 84.0484 88.1726 86.667 88.1706 89.8961C88.1687 93.1251 90.7831 95.7419 94.0102 95.7408Z" fill="#4255FF"/>
<path fill-rule="evenodd" clip-rule="evenodd" d="M89.9715 94.1187C90.9077 92.804 92.4411 91.9466 94.1735 91.9461C95.8239 91.9457 97.2929 92.723 98.2365 93.9329C97.1722 95.0467 95.6726 95.7407 94.0115 95.7412C92.4436 95.7416 91.0203 95.1241 89.9715 94.1187L89.9715 94.1187Z" fill="white"/>
<path fill-rule="evenodd" clip-rule="evenodd" d="M94.0008 91.3686C95.2672 91.3683 96.2944 90.3376 96.2951 89.0666C96.2958 87.7956 95.2697 86.7655 94.0033 86.7658C92.7368 86.7662 91.7096 87.7968 91.709 89.0679C91.7083 90.3389 92.7343 91.369 94.0008 91.3686Z" fill="white"/>
<rect width="141.129" height="27.5975" transform="matrix(1 -0.000191099 -0.000368032 1 79.8523 48.0229)" fill="#F4F5FB"/>
<path opacity="0.3" d="M106.227 63.8142L125.892 63.8112C126.699 63.8111 127.354 63.1547 127.354 62.3451C127.354 61.5356 126.7 60.8794 125.893 60.8796L106.228 60.8826C105.421 60.8827 104.766 61.5391 104.766 62.3486C104.766 63.1582 105.42 63.8143 106.227 63.8142Z" fill="#4257B2"/>
<path opacity="0.3" fill-rule="evenodd" clip-rule="evenodd" d="M177.567 62.4037C177.566 64.7803 175.64 66.7071 173.266 66.7078C170.891 66.7085 168.967 64.7827 168.968 62.4061C168.97 60.0294 170.896 58.1026 173.27 58.1019C175.645 58.1013 177.569 60.027 177.567 62.4037ZM169.541 62.4061C169.54 64.4646 171.208 66.1332 173.266 66.1326C175.324 66.132 176.993 64.4624 176.994 62.4039C176.995 60.3454 175.328 58.6768 173.27 58.6774C171.212 58.678 169.543 60.3476 169.541 62.4061Z" fill="#4257B2"/>
<path opacity="0.3" fill-rule="evenodd" clip-rule="evenodd" d="M154.072 62.4037C154.07 64.7803 152.144 66.7071 149.77 66.7078C147.395 66.7085 145.471 64.7827 145.473 62.4061C145.474 60.0294 147.4 58.1026 149.774 58.1019C152.149 58.1013 154.073 60.027 154.072 62.4037ZM146.046 62.4061C146.045 64.4646 147.712 66.1332 149.77 66.1326C151.828 66.132 153.497 64.4624 153.498 62.4039C153.5 60.3454 151.832 58.6768 149.774 58.6774C147.716 58.678 146.047 60.3476 146.046 62.4061Z" fill="#4257B2"/>
<path opacity="0.3" fill-rule="evenodd" clip-rule="evenodd" d="M202.783 62.4027C202.782 64.7794 200.855 66.7062 198.481 66.7069C196.107 66.7075 194.183 64.7817 194.184 62.4051C194.185 60.0285 196.111 58.1016 198.486 58.101C200.86 58.1003 202.784 60.0261 202.783 62.4027ZM194.757 62.4041C194.755 64.4626 196.423 66.1312 198.481 66.1306C200.539 66.13 202.208 64.4604 202.209 62.4019C202.21 60.3434 200.543 58.6748 198.485 58.6754C196.427 58.676 194.758 60.3456 194.757 62.4041Z" fill="#4257B2"/>
<path fill-rule="evenodd" clip-rule="evenodd" d="M94.0176 68.1145C97.2447 68.1136 99.8623 65.4953 99.864 62.2662C99.8658 59.0372 97.2511 56.4203 94.0239 56.4212C90.7968 56.4221 88.1792 59.0405 88.1775 62.2695C88.1757 65.4985 90.7904 68.1155 94.0176 68.1145Z" fill="#4255FF"/>
<path fill-rule="evenodd" clip-rule="evenodd" d="M89.979 66.493C90.9153 65.1783 92.4487 64.3209 94.1811 64.3205C95.8315 64.32 97.3005 65.0973 98.2441 66.3071C97.1798 67.4209 95.6802 68.1149 94.019 68.1154C92.4511 68.1158 91.0278 67.4984 89.979 66.493L89.979 66.493Z" fill="white"/>
<path fill-rule="evenodd" clip-rule="evenodd" d="M94.0079 63.7428C95.2744 63.7424 96.3016 62.7118 96.3023 61.4408C96.303 60.1697 95.277 59.1397 94.0105 59.1401C92.7441 59.1404 91.7168 60.1711 91.7161 61.4421C91.7154 62.7131 92.7415 63.7432 94.0079 63.7428Z" fill="white"/>
<path opacity="0.3" d="M105.504 34.9592L125.169 34.9564C125.976 34.9562 126.63 34.2998 126.631 33.4902C126.631 32.6806 125.977 32.0243 125.17 32.0244L105.505 32.0273C104.698 32.0274 104.043 32.6838 104.043 33.4934C104.042 34.303 104.696 34.9593 105.504 34.9592Z" fill="#4257B2"/>
<path fill-rule="evenodd" clip-rule="evenodd" d="M94.0248 39.3388C97.2519 39.3377 99.8695 36.7191 99.8715 33.49C99.8735 30.2609 97.259 27.6442 94.0319 27.6453C90.8048 27.6464 88.1871 30.265 88.1852 33.4941C88.1832 36.7232 90.7977 39.34 94.0248 39.3388Z" fill="#4255FF"/>
<path fill-rule="evenodd" clip-rule="evenodd" d="M89.9859 37.7167C90.9221 36.402 92.4555 35.5446 94.1879 35.5441C95.8383 35.5437 97.3073 36.321 98.2509 37.5309C97.1866 38.6447 95.687 39.3387 94.0259 39.3392C92.458 39.3396 91.0347 38.7221 89.9859 37.7167L89.9859 37.7167Z" fill="white"/>
<path fill-rule="evenodd" clip-rule="evenodd" d="M94.0153 34.9671C95.2817 34.9668 96.3089 33.9361 96.3096 32.6651C96.3103 31.3941 95.2842 30.364 94.0178 30.3643C92.7514 30.3647 91.7242 31.3954 91.7235 32.6664C91.7228 33.9374 92.7489 34.9675 94.0153 34.9671Z" fill="white"/>
<path opacity="0.3" fill-rule="evenodd" clip-rule="evenodd" d="M153.528 33.6067C153.527 35.9901 151.596 37.9224 149.215 37.923C146.834 37.9236 144.904 35.9924 144.905 33.609C144.907 31.2257 146.838 29.2934 149.219 29.2928C151.6 29.2922 153.53 31.2234 153.528 33.6067ZM145.479 33.6084C145.478 35.6737 147.15 37.3477 149.215 37.3471C151.28 37.3466 152.954 35.6716 152.955 33.6063C152.956 31.5411 151.284 29.867 149.219 29.8676C147.154 29.8682 145.48 31.5432 145.479 33.6084Z" fill="#4257B2"/>
<path opacity="0.3" fill-rule="evenodd" clip-rule="evenodd" d="M177.462 33.6067C177.461 35.9901 175.529 37.9224 173.148 37.923C170.767 37.9236 168.838 35.9924 168.839 33.609C168.84 31.2257 170.772 29.2934 173.153 29.2928C175.534 29.2922 177.464 31.2234 177.462 33.6067ZM169.413 33.6084C169.412 35.6737 171.084 37.3477 173.149 37.3471C175.214 37.3466 176.888 35.6716 176.889 33.6063C176.89 31.5411 175.218 29.867 173.153 29.8676C171.088 29.8682 169.414 31.5432 169.413 33.6084Z" fill="#4257B2"/>
<path opacity="0.3" fill-rule="evenodd" clip-rule="evenodd" d="M202.814 33.6067C202.813 35.9901 200.881 37.9224 198.5 37.923C196.119 37.9236 194.189 35.9924 194.191 33.609C194.192 31.2257 196.123 29.2934 198.504 29.2928C200.885 29.2922 202.815 31.2234 202.814 33.6067ZM194.765 33.6084C194.764 35.6737 196.436 37.3477 198.501 37.3472C200.566 37.3466 202.241 35.6716 202.242 33.6063C202.243 31.5411 200.57 29.867 198.505 29.8676C196.441 29.8682 194.766 31.5432 194.765 33.6084Z" fill="#4257B2"/>
</g>
<path fill-rule="evenodd" clip-rule="evenodd" d="M173.702 35.2864C174.098 34.6564 174.462 34.115 174.832 33.5999C175.795 32.1946 177.023 31.0889 178.274 29.9782C179.777 28.6234 181.39 27.4366 183.068 26.3181C183.463 26.0436 183.899 25.8424 184.33 25.6152C184.397 25.5738 184.547 25.5695 184.587 25.643C184.658 25.7375 184.715 25.8894 184.683 25.9781C184.644 26.1504 184.551 26.3066 184.452 26.4367C184.053 26.9307 183.6 27.4088 183.095 27.761C181.804 28.6885 180.603 29.6793 179.383 30.7014C178.163 31.7235 177.073 32.8822 176.106 34.1516C175.614 34.8019 175.216 35.5416 174.782 36.2341C174.708 36.3591 174.663 36.5052 174.565 36.6353C174.373 36.9216 174.132 36.9723 173.799 36.8238C173.46 36.6492 173.177 36.3808 172.96 36.071C172.593 35.5198 172.244 34.9373 171.9 34.381C171.551 33.7986 171.196 33.19 170.841 32.5813C170.76 32.4344 170.732 32.3036 170.801 32.1524C170.918 31.9911 171.058 31.9345 171.243 31.9775C171.589 32.0686 171.843 32.3159 172.059 32.6256C172.397 33.1558 172.706 33.6648 173.044 34.1949C173.218 34.541 173.421 34.9082 173.702 35.2864Z" fill="#28D396"/>
<path fill-rule="evenodd" clip-rule="evenodd" d="M199.294 89.8092C199.69 89.1792 200.054 88.6378 200.424 88.1227C201.387 86.7174 202.615 85.6118 203.866 84.501C205.369 83.1462 206.982 81.9594 208.66 80.8409C209.055 80.5664 209.491 80.3653 209.922 80.138C209.989 80.0966 210.139 80.0923 210.18 80.1658C210.25 80.2603 210.307 80.4123 210.275 80.5009C210.236 80.6732 210.143 80.8294 210.045 80.9595C209.645 81.4535 209.192 81.9316 208.687 82.2839C207.397 83.2114 206.195 84.2022 204.975 85.2242C203.755 86.2463 202.665 87.4051 201.699 88.6744C201.206 89.3247 200.808 90.0645 200.375 90.757C200.3 90.882 200.255 91.028 200.157 91.1581C199.965 91.4444 199.724 91.4951 199.391 91.3467C199.052 91.172 198.769 90.9036 198.553 90.5938C198.185 90.0426 197.836 89.4601 197.492 88.9039C197.143 88.3214 196.788 87.7128 196.433 87.1042C196.352 86.9573 196.325 86.8264 196.394 86.6753C196.511 86.5139 196.65 86.4573 196.835 86.5003C197.181 86.5914 197.435 86.8387 197.651 87.1485C197.989 87.6786 198.298 88.1876 198.636 88.7177C198.81 89.0638 199.013 89.431 199.294 89.8092Z" fill="#28D396"/>
<path fill-rule="evenodd" clip-rule="evenodd" d="M161.9 51.2125C161.601 51.4919 161.26 51.6225 160.871 51.7021C160.609 51.7778 160.392 51.9046 160.193 52.0908C159.885 52.3405 159.548 52.5985 159.241 52.8482C158.895 53.0765 158.558 53.3345 158.205 53.5331C157.093 54.1754 156.112 54.9411 155.165 55.8259C155.044 55.9572 154.924 56.0884 154.757 56.1686C153.945 56.5315 153.595 57.4052 152.876 57.8702C152.815 58.2098 152.494 58.3023 152.257 58.4672C151.862 58.7421 151.504 59.0383 151.277 59.458C151.112 59.7632 150.88 60.0556 150.631 60.2884C150.382 60.5212 150.191 60.7372 150.026 61.0425C149.79 61.4325 149.546 61.7927 149.302 62.1529C149.078 62.475 148.838 62.7376 148.614 63.0596C148.551 62.949 148.504 62.898 148.487 62.8385C148.38 61.8064 148.138 60.7484 148.156 59.7124C148.17 59.3218 148.126 58.948 148.073 58.5445C148.034 58.2981 147.769 58.1487 147.506 58.2244C147.302 58.2833 147.257 58.4573 147.279 58.6441C147.278 58.9668 147.246 59.2979 147.244 59.6206C147.251 59.9731 147.354 60.3301 147.331 60.6909C147.274 61.4805 147.488 62.2242 147.556 63.0099C147.571 63.3921 147.741 63.762 147.911 64.1319C148.009 64.3615 148.203 64.5955 148.4 64.732C148.833 65.0262 149.066 64.9589 149.314 64.501C149.942 63.3861 150.569 62.2711 151.348 61.2415C152.197 60.1272 153.101 59.0937 154.165 58.1754C155.25 57.2188 156.288 56.2112 157.456 55.3271C158.408 54.5697 159.369 53.8421 160.376 53.1656C160.979 52.7342 161.498 52.2304 162.008 51.6968C162.108 51.6037 162.161 51.4595 162.235 51.2771C162.055 51.2002 161.921 51.1743 161.9 51.2125Z" fill="#28D396"/>
<path fill-rule="evenodd" clip-rule="evenodd" d="M172.946 90.2059C173.309 90.2475 173.571 90.1383 173.797 89.9161C174.268 89.4689 174.743 89.0448 175.191 88.5773C176.381 87.3391 177.541 86.0342 178.754 84.8164C179.915 83.6534 181.129 82.5774 182.32 81.481C183.424 80.4684 184.573 79.4964 185.7 78.504C185.948 78.3021 186.2 78.1234 186.452 77.9447C186.507 77.9131 186.588 77.9249 186.666 77.9135C186.817 78.1282 186.805 78.3192 186.676 78.5272C186.23 79.2784 185.708 79.9224 185.068 80.4414C184.358 81.0182 183.723 81.7023 183.039 82.3226C182.287 83.0237 181.509 83.6813 180.757 84.3824C180.147 84.9682 179.537 85.5539 178.954 86.1832C177.799 87.3925 176.651 88.6482 175.477 89.8604C175.1 90.2703 174.697 90.6367 174.238 90.8929C174.018 91.0196 173.794 91.1231 173.545 91.1832C172.764 91.4153 172.128 90.7274 171.958 89.9714C171.891 89.6499 171.847 89.3488 171.819 89.0216C171.797 88.4571 171.793 87.8898 171.79 87.3224C171.783 87.2761 171.777 87.2298 171.789 87.1806C171.801 86.9896 171.855 86.8161 172.004 86.7471C172.134 86.6809 172.41 86.8062 172.515 86.9802C172.623 87.1773 172.692 87.3801 172.687 87.6175C172.684 88.1385 172.7 88.6566 172.716 89.1748C172.75 89.5483 172.778 89.8755 172.946 90.2059Z" fill="#28D396"/>
<path fill-rule="evenodd" clip-rule="evenodd" d="M160.767 102.125C160.502 102.437 160.178 102.607 159.802 102.731C159.549 102.837 159.349 102.988 159.173 103.197C158.897 103.48 158.592 103.776 158.316 104.06C157.999 104.327 157.695 104.622 157.367 104.861C156.337 105.629 155.452 106.504 154.615 107.493C154.511 107.637 154.407 107.782 154.251 107.881C153.486 108.336 153.241 109.244 152.58 109.79C152.56 110.135 152.252 110.264 152.035 110.455C151.675 110.774 151.354 111.11 151.178 111.554C151.05 111.876 150.853 112.194 150.633 112.454C150.413 112.714 150.248 112.951 150.12 113.273C149.931 113.688 149.731 114.074 149.531 114.461C149.346 114.807 149.138 115.096 148.953 115.442C148.878 115.339 148.826 115.294 148.802 115.237C148.574 114.224 148.211 113.202 148.108 112.171C148.076 111.781 147.989 111.415 147.889 111.02C147.821 110.78 147.541 110.663 147.289 110.769C147.093 110.851 147.069 111.029 147.113 111.212C147.148 111.533 147.156 111.865 147.192 112.186C147.239 112.535 147.383 112.878 147.403 113.239C147.438 114.03 147.738 114.743 147.897 115.516C147.957 115.893 148.168 116.241 148.38 116.588C148.504 116.805 148.724 117.015 148.936 117.127C149.4 117.369 149.624 117.275 149.817 116.791C150.31 115.611 150.803 114.43 151.456 113.317C152.17 112.111 152.947 110.979 153.897 109.943C154.862 108.866 155.775 107.744 156.833 106.73C157.69 105.867 158.559 105.032 159.48 104.243C160.029 103.744 160.485 103.183 160.93 102.593C161.018 102.489 161.054 102.34 161.107 102.15C160.919 102.095 160.783 102.085 160.767 102.125Z" fill="#28D396"/>
</g>
<defs>
<filter id="filter0_d" x="47.8221" y="-9.14673" width="205.17" height="176.017" filterUnits="userSpaceOnUse" color-interpolation-filters="sRGB">
<feFlood flood-opacity="0" result="BackgroundImageFix"/>
<feColorMatrix in="SourceAlpha" type="matrix" values="0 0 0 0 0 0 0 0 0 0 0 0 0 0 0 0 0 0 127 0" result="hardAlpha"/>
<feOffset dy="4"/>
<feGaussianBlur stdDeviation="16"/>
<feColorMatrix type="matrix" values="0 0 0 0 0.188235 0 0 0 0 0.207843 0 0 0 0 0.270588 0 0 0 0.08 0"/>
<feBlend mode="normal" in2="BackgroundImageFix" result="effect1_dropShadow"/>
<feBlend mode="normal" in="SourceGraphic" in2="effect1_dropShadow" result="shape"/>
</filter>
<filter id="filter1_d" x="69.8221" y="9.85327" width="161.17" height="131.65" filterUnits="userSpaceOnUse" color-interpolation-filters="sRGB">
<feFlood flood-opacity="0" result="BackgroundImageFix"/>
<feColorMatrix in="SourceAlpha" type="matrix" values="0 0 0 0 0 0 0 0 0 0 0 0 0 0 0 0 0 0 127 0" result="hardAlpha"/>
<feOffset dy="1"/>
<feGaussianBlur stdDeviation="5"/>
<feColorMatrix type="matrix" values="0 0 0 0 0.188235 0 0 0 0 0.207843 0 0 0 0 0.270588 0 0 0 0.08 0"/>
<feBlend mode="normal" in2="BackgroundImageFix" result="effect1_dropShadow"/>
<feBlend mode="normal" in="SourceGraphic" in2="effect1_dropShadow" result="shape"/>
</filter>
<clipPath id="clip0">
<rect width="300" height="150" fill="white"/>
</clipPath>
</defs>
</svg>